<svg version="1.1" id="Layer_1" xmlns="http://www.w3.org/2000/svg" xmlns:xlink="http://www.w3.org/1999/xlink" x="0px"
    y="0px" width="100%" viewBox="0 0 144 144" enable-background="new 0 0 144 144" xml:space="preserve">
    <path fill="#1C3664" opacity="1.000000" stroke="none" d="
M91.000000,145.000000 
	C60.692581,145.000000 30.885160,145.000000 1.038871,145.000000 
	C1.038871,97.067635 1.038871,49.135227 1.038871,1.101411 
	C48.890511,1.101411 96.781303,1.101411 144.836060,1.101411 
	C144.836060,48.999542 144.836060,96.999725 144.836060,145.000000 
	C127.135612,145.000000 109.317802,145.000000 91.000000,145.000000 
M109.920189,97.604286 
	C108.065720,91.913345 106.391022,86.154846 104.287804,80.557365 
	C103.070503,77.317665 103.857712,75.533440 106.627090,73.562996 
	C113.810738,68.451752 120.737404,62.979000 127.758400,57.639706 
	C129.505432,56.311138 131.221237,54.941532 134.057632,52.727146 
	C130.852676,52.560863 129.232620,52.386723 127.615105,52.407764 
	C118.300919,52.528919 108.982498,52.567696 99.676178,52.917896 
	C96.430992,53.040012 94.985619,51.894306 94.059227,48.844360 
	C91.497940,40.411846 88.647423,32.066555 85.862534,23.702999 
	C85.112259,21.449762 84.188225,19.254381 82.812012,15.632510 
	C78.840065,27.616673 75.263802,38.102161 71.929436,48.664021 
	C70.999840,51.608585 69.744865,53.135582 66.397919,52.907696 
	C61.094727,52.546616 55.765205,52.526417 50.445625,52.464184 
	C44.748722,52.397537 39.050434,52.449154 33.352753,52.449154 
	C40.994171,59.740238 48.660801,66.121208 56.888775,71.669754 
	C61.762291,74.956215 62.889050,78.077637 60.700317,83.523964 
	C57.963665,90.333694 56.121941,97.503067 53.847485,104.663231 
	C59.270020,105.722206 63.397484,105.206268 67.226608,102.004906 
	C70.660416,99.134026 74.752556,97.049927 78.182228,94.174904 
	C81.510849,91.384590 83.994324,91.306076 87.609100,94.036980 
	C95.941376,100.331841 104.702736,106.058723 113.290016,112.016045 
	C113.609604,111.825699 113.929192,111.635361 114.248779,111.445015 
	C112.860367,107.092651 111.471954,102.740295 109.920189,97.604286 
M28.144459,102.503082 
	C28.144459,111.895142 28.144459,121.287193 28.144459,130.682312 
	C46.186901,130.682312 64.576714,130.682312 82.810074,130.682312 
	C82.810074,124.294373 82.810074,118.232582 82.810074,112.516602 
	C70.420006,112.516602 58.391148,112.516602 46.171185,112.516602 
	C46.171185,100.555984 46.204319,88.912605 46.132145,77.269890 
	C46.122364,75.691856 46.146389,73.443535 45.198078,72.652588 
	C39.922905,68.252785 34.352543,64.206902 28.159424,59.488529 
	C28.159424,74.272270 28.159424,87.887550 28.144459,102.503082 
M41.402275,45.007156 
	C42.954594,45.007156 44.506912,45.007156 46.559971,45.007156 
	C46.559971,34.498886 46.559971,24.795681 46.559971,15.214705 
	C40.105457,15.214705 33.727211,15.214705 27.931074,15.214705 
	C27.931074,25.178308 27.931074,34.738678 27.931074,45.007168 
	C32.564751,45.007168 36.496399,45.007168 41.402275,45.007156 
z" />
    <path fill="#CD2037" opacity="1.000000" stroke="none" d="
M110.001869,97.996109 
	C111.471954,102.740295 112.860367,107.092651 114.248779,111.445015 
	C113.929192,111.635361 113.609604,111.825699 113.290016,112.016045 
	C104.702736,106.058723 95.941376,100.331841 87.609100,94.036980 
	C83.994324,91.306076 81.510849,91.384590 78.182228,94.174904 
	C74.752556,97.049927 70.660416,99.134026 67.226608,102.004906 
	C63.397484,105.206268 59.270020,105.722206 53.847485,104.663231 
	C56.121941,97.503067 57.963665,90.333694 60.700317,83.523964 
	C62.889050,78.077637 61.762291,74.956215 56.888775,71.669754 
	C48.660801,66.121208 40.994171,59.740238 33.352753,52.449154 
	C39.050434,52.449154 44.748722,52.397537 50.445625,52.464184 
	C55.765205,52.526417 61.094727,52.546616 66.397919,52.907696 
	C69.744865,53.135582 70.999840,51.608585 71.929436,48.664021 
	C75.263802,38.102161 78.840065,27.616673 82.812012,15.632510 
	C84.188225,19.254381 85.112259,21.449762 85.862534,23.702999 
	C88.647423,32.066555 91.497940,40.411846 94.059227,48.844360 
	C94.985619,51.894306 96.430992,53.040012 99.676178,52.917896 
	C108.982498,52.567696 118.300919,52.528919 127.615105,52.407764 
	C129.232620,52.386723 130.852676,52.560863 134.057632,52.727146 
	C131.221237,54.941532 129.505432,56.311138 127.758400,57.639706 
	C120.737404,62.979000 113.810738,68.451752 106.627090,73.562996 
	C103.857712,75.533440 103.070503,77.317665 104.287804,80.557365 
	C106.391022,86.154846 108.065720,91.913345 110.001869,97.996109 
z" />
    <path fill="#FDFDFD" opacity="1.000000" stroke="none" d="
M28.151941,102.002960 
	C28.159424,87.887550 28.159424,74.272270 28.159424,59.488529 
	C34.352543,64.206902 39.922905,68.252785 45.198078,72.652588 
	C46.146389,73.443535 46.122364,75.691856 46.132145,77.269890 
	C46.204319,88.912605 46.171185,100.555984 46.171185,112.516602 
	C58.391148,112.516602 70.420006,112.516602 82.810074,112.516602 
	C82.810074,118.232582 82.810074,124.294373 82.810074,130.682312 
	C64.576714,130.682312 46.186901,130.682312 28.144459,130.682312 
	C28.144459,121.287193 28.144459,111.895142 28.151941,102.002960 
z" />
    <path fill="#FBFBFC" opacity="1.000000" stroke="none" d="
M40.915161,45.007164 
	C36.496399,45.007168 32.564751,45.007168 27.931074,45.007168 
	C27.931074,34.738678 27.931074,25.178308 27.931074,15.214705 
	C33.727211,15.214705 40.105457,15.214705 46.559971,15.214705 
	C46.559971,24.795681 46.559971,34.498886 46.559971,45.007156 
	C44.506912,45.007156 42.954594,45.007156 40.915161,45.007164 
z" />
</svg>